<?xml version="1.0" encoding="UTF-8"?>
<svg id="Layer_1" data-name="Layer 1" xmlns="http://www.w3.org/2000/svg" viewBox="0 0 204.04 67.95">
  <defs>
    <style>
      .cls-1 {
        fill: #fff;
      }

      .cls-2 {
        fill: #fe0000;
      }
    </style>
  </defs>
  <path class="cls-2" d="M18.35,0h-7.1L0,66.61h7.36l1.99-12.94h10.8l1.99,12.94h7.5L18.35,0ZM11.48,39.78l3.27-21.3,3.27,21.3h-6.54Z"/>
  <path class="cls-2" d="M37.8,67.95c-1.87,0-3.56-.84-5.08-2.52-1.52-1.68-2.77-4.11-3.77-7.28l3.93-12.18c.68,2.28,1.38,4.01,2.11,5.19s1.49,1.76,2.29,1.76c2.14,0,3.2-3.23,3.2-9.71V14.56h-8.81V0h15.95v42.06c0,8.69-.84,15.18-2.51,19.46-1.68,4.28-4.11,6.43-7.32,6.43Z"/>
  <path class="cls-2" d="M67.26,0h-7.1l-11.25,66.61h7.36l1.99-12.94h10.8l1.99,12.94h7.5L67.26,0ZM60.39,39.78l3.27-21.3,3.27,21.3h-6.54Z"/>
  <path class="cls-1" d="M106.91,66.62h-6.92V15.04h6.59s0,5.6,0,5.39c.33-.95,2.31-6.31,5.9-6.24.79-.02,4.35.19,6.36,8.09,2.24-7.09,5.3-8.09,6.86-8.09,4.57.17,6,6.51,6.31,7.32.52,1.82,1.22,4.93,1.53,10.24.09,1.33.13,4.5.13,4.5v30.38h-6.92v-26.55c.01-5.43-.62-10.51-2.98-10.56-2.4.11-3.41,4.88-3.45,10.56v26.55h-6.93v-26.22c.03-4.71-.31-10.81-2.99-10.9-2.7.06-3.48,5.95-3.49,10.9v26.22Z"/>
  <path class="cls-1" d="M87.25,67.47c-1.68,0-3.31-.51-4.9-1.52-1.59-1.01-2.87-2.28-3.84-3.81l2.08-12.37c.92,1.46,2,2.61,3.24,3.47,1.24.86,2.45,1.29,3.64,1.29s1.97-.32,2.42-.95c.45-.63.67-1.49.67-2.57,0-1.01-.21-1.76-.64-2.24s-.98-.84-1.67-1.09-1.45-.54-2.28-.86c-.83-.32-1.66-.74-2.49-1.28-.84-.54-1.6-1.37-2.29-2.48-.69-1.11-1.24-2.62-1.66-4.52-.41-1.91-.62-4.32-.62-7.23,0-3.3.37-6.23,1.11-8.8.74-2.57,1.83-4.6,3.26-6.09,1.43-1.49,3.18-2.24,5.24-2.24,1.38,0,2.79.37,4.21,1.1,1.42.73,2.62,1.82,3.59,3.28l-2.08,12.28c-.97-1.46-1.94-2.46-2.91-3-.97-.54-1.89-.81-2.77-.81-1.17,0-1.98.35-2.46,1.05-.47.7-.71,1.56-.71,2.57s.21,1.79.62,2.33c.41.54.96.95,1.66,1.24s1.45.57,2.28.86c.82.29,1.66.72,2.49,1.29s1.6,1.41,2.29,2.52c.69,1.11,1.24,2.6,1.66,4.47.41,1.87.62,4.27.62,7.18,0,3.18-.37,6.03-1.11,8.57-.74,2.54-1.83,4.57-3.28,6.09-1.44,1.52-3.24,2.28-5.37,2.28Z"/>
  <path class="cls-1" d="M144.27,67.47c-1.58,0-2.91-.7-4.01-2.09-1.09-1.4-1.92-3.3-2.49-5.71-.57-2.41-.86-5.11-.86-8.09,0-3.17.31-5.91.93-8.23.62-2.31,1.57-4.09,2.86-5.33,1.29-1.24,2.95-1.86,4.99-1.86h4.66v9.42h-3.71c-1.12,0-1.9.47-2.35,1.43-.45.95-.67,2.22-.67,3.8s.23,2.86.69,3.81c.46.95,1.09,1.43,1.89,1.43.75,0,1.44-.49,2.06-1.47.62-.98,1.07-2.49,1.37-4.52v-13.89c-.04-1.08-.1-2.08-.24-2.93-.2-1.4-.53-2.75-1.22-3.77-.93-1.5-3.08-2.05-5.01-.73-1.29.9-2.33,2.12-3.07,3.72l-2.33-12.28c.97-1.74,2.31-3.22,4.02-4.43,1.49-.99,3.04-1.57,4.68-1.57,2.09,0,3.81.69,5.35,2.46,1,1.18,1.76,2.42,2.28,3.73.51,1.17.9,2.52,1.24,3.96.37,1.59.63,3.32.82,5.13.23,2.34.36,4.58.38,6.71l.02,30.45h-6.45v-6.67c-.39,1.84-.99,3.67-1.66,4.81-1.05,1.81-2.45,2.71-4.17,2.71Z"/>
  <path class="cls-1" d="M160.91,66.62V15.04h6.59v6.2h0s.55-2.22,1.86-4.16c1.31-1.93,2.9-2.9,4.77-2.9v16.27c-.32-.12-.59-.2-.82-.24-.23-.03-.48-.05-.75-.05-1.41,0-2.55,1-3.42,3-.87,2-1.31,5.25-1.31,9.76v23.7h-6.92Z"/>
  <path class="cls-1" d="M186.4,67.47c-2.52,0-4.49-1.63-5.9-4.9-1.41-3.27-2.11-8.2-2.11-14.8v-19.32h-2.88s0-13.42,0-13.42h2.88s0-11.52,0-11.52h6.92v11.52h4.51v13.42h-4.51v19.13c0,1.84.19,3.28.58,4.33.39,1.05.89,1.57,1.49,1.57.82,0,1.53-.54,2.11-1.62l1.71,12.66c-.58,1.02-1.3,1.76-2.15,2.24-.85.48-1.74.71-2.66.71Z"/>
  <circle class="cls-2" cx="197.63" cy="56.16" r="6.42"/>
</svg>